<svg width="400" height="221" viewBox="0 0 400 221" fill="none" xmlns="http://www.w3.org/2000/svg">
<path fill-rule="evenodd" clip-rule="evenodd" d="M260.411 25.4685C267.444 25.4685 273.145 19.767 273.145 12.7342C273.145 5.70141 267.444 0 260.411 0C253.378 0 247.678 5.70141 247.678 12.7342C247.678 19.767 253.378 25.4685 260.411 25.4685ZM160.625 160.908C137.717 135.252 127.333 114.482 127.333 90.659C127.333 68.9725 138.023 54.9227 158.793 54.9227C176.72 54.9227 189.677 67.2012 199.668 81.1744L200 81.4921V81.4926L200 81.4923L200 81.4926V81.4921L200.332 81.1744C210.323 67.2012 223.28 54.9227 241.208 54.9227C261.977 54.9227 272.667 68.9725 272.667 90.659C272.667 114.482 262.283 135.252 239.375 160.908C226.986 174.756 213.251 188.973 200 202.21C186.749 188.973 173.014 174.756 160.625 160.908ZM189.947 45.455L200 57.1525L210.053 45.455C221.407 33.2898 237.543 26.5174 256.785 26.5174C276.142 26.5174 295.343 35.4034 305.449 52.3576C307.883 56.4409 309.724 60.8614 310.96 65.4498C311.172 66.2373 311.371 67.0301 311.553 67.826C312.561 72.2243 313.041 76.7403 312.988 81.2532C312.67 107.715 294.825 128.528 277.497 146.474C263.732 160.732 250.054 175.065 236.47 189.497C234.389 191.708 232.389 193.996 230.39 196.283L230.39 196.284C226.465 200.773 222.542 205.262 218.007 209.167H299.556C330.711 207.64 332.544 204.891 332.544 182.289V26.5174L344.231 31.1552C346.521 32.0639 348.547 32.9111 350.425 33.6964L350.426 33.6966C357.7 36.7378 362.75 38.8488 372.221 39.9929L393.586 42.5748L393.41 42.6063C393.523 42.6147 393.586 42.6053 393.586 42.5748L393.78 57.4857C393.781 57.5784 390.721 58.0448 389.119 58.2888C388.654 58.3598 388.311 58.412 388.203 58.4307C386.308 58.7593 384.416 59.0995 382.527 59.4597C382.186 59.5247 381.844 59.5887 381.502 59.6526L381.5 59.6529C378.338 60.2443 375.163 60.8382 372.285 62.3492C371.797 62.6044 371.323 62.8868 370.869 63.1997C366.074 66.5103 366.163 72.8218 366.239 78.2257L366.239 78.229C366.248 78.8415 366.256 79.4423 366.258 80.0257C366.261 81.7733 366.291 86.6874 366.324 91.8491L366.324 91.8659L366.324 91.8857C366.362 97.9117 366.402 104.265 366.402 106.306V153.958V182.289C366.402 204.28 368.54 207.64 400 209.167V220.468H334.507H299.556H210.105H200H200H189.895H100.444H65.4929H0V209.167C31.4597 207.64 33.5985 204.28 33.5985 182.289V153.958V106.306C33.5985 104.264 33.6384 97.9013 33.6762 91.8709L33.6762 91.8691C33.7086 86.7001 33.7394 81.7756 33.7423 80.0257C33.7435 79.4412 33.752 78.8393 33.7607 78.2256C33.8372 72.8217 33.9264 66.5103 29.1308 63.1997C28.6772 62.8868 28.2026 62.6044 27.7154 62.3492C24.8373 60.8382 21.6618 60.2443 18.4996 59.6529L18.4986 59.6527C18.1564 59.5887 17.8143 59.5248 17.4728 59.4597C15.5839 59.0995 13.6918 58.7593 11.7966 58.4307C11.6889 58.412 11.3466 58.3598 10.8808 58.2888L10.8805 58.2888C9.27912 58.0447 6.2193 57.5784 6.22011 57.4857L6.41436 42.5748C6.41436 42.6053 6.47736 42.6147 6.58971 42.6063L6.41436 42.5748L27.7795 39.9929C37.2501 38.8488 42.2997 36.7378 49.574 33.6966L49.5742 33.6966C51.4526 32.9112 53.4794 32.0639 55.7689 31.1552L67.4563 26.5174V182.289C67.4563 204.891 69.2886 207.64 100.444 209.167H181.993C177.458 205.262 173.535 200.773 169.61 196.283C167.611 193.996 165.611 191.708 163.53 189.497C149.946 175.065 136.268 160.732 122.503 146.474C105.175 128.528 87.3305 107.715 87.0123 81.2532C86.9588 76.7403 87.4386 72.2243 88.4466 67.826C88.6293 67.0301 88.8278 66.2373 89.0398 65.4498C90.2757 60.8614 92.1173 56.4409 94.5512 52.3576C104.657 35.4034 123.858 26.5174 143.215 26.5174C162.457 26.5174 178.593 33.2898 189.947 45.455Z" fill="#211714"/>
</svg>
